HIERARCHY
ROOT Hips
{
	OFFSET 0.00000 0.00000 0.00000
	CHANNELS 6 Xposition Yposition Zposition Zrotation Yrotation Xrotation 
	JOINT RightUpLegDummy
	{
		OFFSET 0 0 0
		CHANNELS 3 Zrotation Yrotation Xrotation
		JOINT RightUpLeg
		{
			OFFSET -3.52197 -3.41223 0.04002
			CHANNELS 3 Zrotation Yrotation Xrotation
			JOINT RightLeg
			{
				OFFSET 0.00006 -17.42390 1.60435
				CHANNELS 3 Zrotation Yrotation Xrotation
				JOINT RightFoot
				{
					OFFSET 0.06153 -16.50078 -1.63901
					CHANNELS 3 Zrotation Yrotation Xrotation
					JOINT RightToes
					{
						OFFSET 0.00298 -1.73825 3.34613
						CHANNELS 3 Zrotation Yrotation Xrotation
						End Site
						{
							OFFSET 0.00480 -0.05416 3.85043
						}
					}
				}
			}
		}
	}
	JOINT SpineDummy
	{
		OFFSET 0 0 0
		CHANNELS 3 Zrotation Yrotation Xrotation
		JOINT Spine
		{
			OFFSET 0.00000 4.68130 0.00000
			CHANNELS 3 Zrotation Yrotation Xrotation
			JOINT Spine1
			{
				OFFSET -0.00000 10.10138 0.05002
				CHANNELS 3 Zrotation Yrotation Xrotation
				JOINT HEadDummy
				{
					OFFSET 0 0 0
					CHANNELS 3 Zrotation Yrotation Xrotation
					JOINT Head
					{
						OFFSET -0.00000 3.43865 0.00438
						CHANNELS 3 Zrotation Yrotation Xrotation
						End Site
						{
							OFFSET -0.11417 5.02924 0.98962
						}
					}
				}
				JOINT LeftShoulder1Dummy
				{
					OFFSET 0 0 0
					CHANNELS 3 Zrotation Yrotation Xrotation
					JOINT LeftShoulder1
					{
						OFFSET 3.53937 -0.14262 -0.08662
						CHANNELS 3 Zrotation Yrotation Xrotation
						JOINT LeftArm
						{
							OFFSET 4.04833 -0.00133 0.12681
							CHANNELS 3 Zrotation Yrotation Xrotation
							JOINT LeftForeArm
							{
								OFFSET 10.33880 -0.01036 -0.55515
								CHANNELS 3 Zrotation Yrotation Xrotation
								JOINT LeftHand
								{
									OFFSET 8.69677 0.07543 0.40060
									CHANNELS 3 Zrotation Yrotation Xrotation
									End Site
									{
										OFFSET 5.28377 -0.21905 0.59205
									}
								}
							}
						}
					}
				}
				JOINT RightShoulderDummy
				{
					OFFSET 0 0 0
					CHANNELS 3 Zrotation Yrotation Xrotation
					JOINT RightShoulder
					{
						OFFSET -3.53937 -0.14262 -0.08660
						CHANNELS 3 Zrotation Yrotation Xrotation
						JOINT RightArm
						{
							OFFSET -4.04833 -0.00133 0.12683
							CHANNELS 3 Zrotation Yrotation Xrotation
							JOINT RightForeArm
							{
								OFFSET -10.37987 -0.01039 -0.55511
								CHANNELS 3 Zrotation Yrotation Xrotation
								JOINT RightHand
								{
									OFFSET -8.67398 0.07538 0.40058
									CHANNELS 3 Zrotation Yrotation Xrotation
									End Site
									{
										OFFSET -5.24810 -0.21916 0.59204
									}
								}
							}
						}
					}
				}
			}
		}
	}
	JOINT LeftUpLegDummy
	{
		OFFSET 0 0 0
		CHANNELS 3 Zrotation Yrotation Xrotation
		JOINT LeftUpLeg
		{
			OFFSET 3.52197 -3.41223 0.04002
			CHANNELS 3 Zrotation Yrotation Xrotation
			JOINT LeftLeg
			{
				OFFSET -0.00012 -17.42399 1.60337
				CHANNELS 3 Zrotation Yrotation Xrotation
				JOINT LeftFoot
				{
					OFFSET -0.09972 -16.50070 -1.63802
					CHANNELS 3 Zrotation Yrotation Xrotation
					JOINT LeftToes
					{
						OFFSET -0.01575 -1.73823 3.34611
						CHANNELS 3 Zrotation Yrotation Xrotation
						End Site
						{
							OFFSET 0.03150 -0.01868 3.85031
						}
					}
				}
			}
		}
	}
}
MOTION
Frames: 15
Frame Time: 0.033333
7.3807 38.3328 17.5232 178.5930 34.5149 172.2560 0.0000 0.0000 0.0000 -2.8418 -8.1911 -6.6811 -6.3735 -2.7126 60.2677 7.2178 -1.2046 8.2307 0.0000 -0.0000 -0.0000 0.0000 0.0000 0.0000 -0.1992 4.2100 11.2163 -0.4402 4.4401 -2.1172 -0.0000 0.0000 -0.0000 0.1558 2.5612 -1.9024 -0.0000 0.0000 -0.0000 -34.1237 -2.3975 2.3699 -41.1867 -13.9316 -21.8152 -8.9110 5.2840 42.9887 14.7237 -3.3064 -1.0779 -0.0000 0.0000 -0.0000 35.6182 5.3465 3.6864 40.3013 3.2258 -13.4290 11.6124 2.7503 25.8233 -12.8164 2.2881 -0.8299 0.0000 0.0000 0.0000 -5.7030 0.4695 -10.2275 -0.8920 3.2164 24.0789 4.7766 -0.0373 -9.1658 0.0000 0.0000 -0.0000
8.4553 38.4876 16.1806 179.9100 33.0443 172.4460 0.0000 0.0000 0.0000 -1.8483 -7.3829 -10.5496 -10.0060 -4.7008 58.6257 3.6698 -0.5119 5.2126 0.0000 -0.0000 -0.0000 0.0000 0.0000 0.0000 -0.0436 3.0460 11.6518 0.9481 3.0179 -2.3816 -0.0000 0.0000 -0.0000 0.1868 3.5739 -0.7796 -0.0000 0.0000 -0.0000 -33.5063 -2.3449 2.3122 -42.8112 -15.2650 -19.2497 -10.0083 5.3052 41.6574 14.6499 -3.8466 -1.1366 -0.0000 0.0000 -0.0000 35.4209 5.3160 3.6559 39.6734 2.0110 -13.4767 11.5416 4.1314 24.5325 -12.9260 2.1224 -0.8200 0.0000 0.0000 0.0000 -4.6031 0.8764 -6.7891 -1.2224 1.5825 24.4408 4.7958 0.0785 -11.5475 0.0000 0.0000 -0.0000
9.5433 38.6319 14.8479 -179.1410 31.5221 172.5810 0.0000 0.0000 0.0000 -1.2735 -6.4894 -13.8649 -10.9694 -6.2144 54.4153 1.3649 -0.1556 2.6839 0.0000 -0.0000 -0.0000 0.0000 0.0000 0.0000 -0.2621 2.0906 11.7906 2.4193 1.7667 -2.4659 -0.0000 0.0000 -0.0000 0.3821 4.0795 0.2002 -0.0000 0.0000 -0.0000 -33.1193 -2.3537 2.2929 -43.8688 -16.9213 -16.6381 -11.0184 5.3383 40.4038 14.2415 -4.4267 -1.1709 -0.0000 0.0000 -0.0000 35.1985 5.2786 3.6205 39.1512 0.8204 -13.8243 11.2977 5.4990 22.2529 -12.9802 1.9899 -0.8097 0.0000 0.0000 0.0000 -3.5755 1.2811 -3.0505 -1.7260 -0.0868 23.7297 5.3067 0.1835 -13.5338 0.0000 0.0000 -0.0000
10.6225 38.7341 13.5027 -178.5550 30.6618 172.6150 0.0000 0.0000 0.0000 -1.1761 -5.2467 -16.2028 -10.3911 -7.7273 47.3468 0.9733 -0.0966 0.5801 0.0000 -0.0000 -0.0000 0.0000 0.0000 0.0000 -0.3610 1.5901 11.5316 3.4776 1.0341 -2.0652 -0.0000 0.0000 -0.0000 0.5164 4.1610 0.6121 -0.0000 0.0000 -0.0000 -33.1566 -2.4181 2.3203 -44.1549 -19.0181 -14.3971 -11.7887 5.2509 39.3472 14.0132 -4.9229 -1.2078 -0.0000 0.0000 -0.0000 35.1523 5.2665 3.6114 38.4564 -0.0058 -14.7772 11.0464 6.0688 20.0947 -12.9029 2.0937 -0.8155 0.0000 0.0000 0.0000 -2.6103 1.7525 0.7680 -2.1489 -1.2379 22.4897 5.9730 0.2996 -15.3216 0.0000 0.0000 -0.0000
11.7175 38.7421 12.1352 -178.2690 30.4896 172.5800 0.0000 0.0000 0.0000 -1.3824 -3.8498 -17.2374 -9.0328 -9.5200 37.5255 2.1308 -0.2103 -0.1666 0.0000 -0.0000 -0.0000 0.0000 0.0000 0.0000 -0.3003 1.4211 10.9721 4.0135 0.7249 -1.3902 -0.0000 0.0000 -0.0000 0.6252 4.0997 0.7220 -0.0000 0.0000 -0.0000 -33.2272 -2.4370 2.3319 -44.1042 -21.1639 -12.7251 -12.2426 4.3567 38.6498 14.2570 -5.2055 -1.2624 -0.0000 0.0000 -0.0000 35.2820 5.2866 3.6313 37.6967 -0.3132 -16.3831 10.8235 5.3665 19.3886 -12.9156 2.3638 -0.8445 0.0000 0.0000 0.0000 -1.7139 2.3478 4.5826 -2.3800 -1.8710 21.1902 6.2613 0.4091 -16.9582 0.0000 0.0000 -0.0000
12.8241 38.7777 10.7906 -178.3160 30.5684 172.5640 0.0000 0.0000 0.0000 -1.7220 -2.5604 -17.0517 -7.1190 -11.7947 25.1407 2.8475 -0.2892 0.2683 0.0000 -0.0000 -0.0000 0.0000 0.0000 0.0000 -0.4355 1.3702 10.2635 4.3430 0.5697 -0.7713 -0.0000 0.0000 -0.0000 0.7070 4.0861 0.9072 -0.0000 0.0000 -0.0000 -33.1353 -2.3940 2.3096 -44.0021 -22.8649 -11.5365 -12.4765 2.5676 38.1006 14.6727 -5.2784 -1.3095 -0.0000 0.0000 -0.0000 35.4266 5.3143 3.6557 37.1231 -0.2408 -17.7290 10.5419 3.7417 19.8608 -13.1147 2.6054 -0.8834 0.0000 0.0000 0.0000 -1.0075 2.8899 8.8347 -2.4801 -2.2443 18.5282 6.3152 0.4506 -17.5886 0.0000 0.0000 -0.0000
13.9129 38.8823 9.5127 -178.6360 30.5055 172.6880 0.0000 0.0000 0.0000 -2.0839 -1.8528 -15.9233 -4.1542 -13.2504 10.9490 3.3761 -0.3365 0.0713 0.0000 -0.0000 -0.0000 0.0000 0.0000 0.0000 -0.8658 1.3235 9.3391 4.6955 0.4181 -0.1917 -0.0000 0.0000 -0.0000 0.6758 4.1159 1.2182 -0.0000 0.0000 -0.0000 -33.1351 -2.3803 2.3042 -43.7096 -24.0210 -10.8002 -12.6126 1.0840 37.3836 14.8652 -5.2964 -1.3297 -0.0000 0.0000 -0.0000 35.5334 5.3337 3.6734 36.7492 -0.1204 -18.6137 10.2626 1.8166 20.8240 -13.1552 2.7295 -0.8994 0.0000 0.0000 0.0000 -0.4576 3.3748 13.0856 -2.6418 -2.7846 14.7715 6.0821 0.4096 -17.1048 0.0000 0.0000 -0.0000
15.0425 38.8701 8.2295 -179.0750 30.2106 172.8630 0.0000 0.0000 0.0000 -2.2562 -1.9815 -14.7438 -1.0413 -11.2826 -0.8403 5.4250 -0.4092 -2.6915 0.0000 -0.0000 -0.0000 0.0000 0.0000 0.0000 -1.4184 1.2755 8.0007 5.0322 0.2690 0.6460 -0.0000 0.0000 -0.0000 0.5815 4.1059 1.5558 -0.0000 0.0000 -0.0000 -33.2915 -2.4224 2.3300 -43.2701 -24.8061 -10.5367 -12.6527 0.1606 36.8232 14.9276 -5.2981 -1.3357 -0.0000 0.0000 -0.0000 35.6547 5.3501 3.6912 36.5652 -0.2507 -19.3684 10.0350 0.0848 21.7402 -12.7863 2.7027 -0.8707 0.0000 0.0000 0.0000 0.2268 4.0108 16.2714 -3.0024 -3.9733 12.9133 5.1955 0.3469 -16.7772 0.0000 0.0000 -0.0000
16.2564 38.7199 6.9160 -179.4990 29.8939 172.7640 0.0000 0.0000 0.0000 -2.1332 -1.7331 -14.6854 0.0596 -7.0483 -4.6724 7.4171 -0.3517 -6.4651 0.0000 -0.0000 -0.0000 0.0000 0.0000 0.0000 -1.9828 1.2905 6.8331 5.3002 0.2127 1.3982 -0.0000 0.0000 -0.0000 0.5660 4.0802 1.9818 -0.0000 0.0000 -0.0000 -33.3918 -2.4398 2.3428 -42.9229 -25.1246 -10.6127 -12.6188 -0.1146 36.5901 15.1171 -5.1611 -1.3365 -0.0000 0.0000 -0.0000 35.7987 5.3697 3.7124 36.6824 -0.7412 -20.0006 9.8459 -1.2251 22.3438 -12.3141 2.4429 -0.8117 0.0000 0.0000 0.0000 1.3611 5.2320 18.7755 -3.4785 -6.3161 13.4650 3.8179 0.2747 -16.5684 0.0000 0.0000 -0.0000
17.5229 38.5669 5.6214 -179.5680 29.7774 172.3410 0.0000 0.0000 0.0000 -1.1288 -1.0272 -14.6259 -0.2256 -4.0698 -2.6806 6.0432 -0.3112 -5.5258 0.0000 -0.0000 -0.0000 0.0000 0.0000 0.0000 -2.2110 1.3699 6.5947 5.4785 0.2919 1.4111 -0.0000 0.0000 -0.0000 0.5798 4.1862 2.6854 -0.0000 0.0000 -0.0000 -33.6030 -2.4060 2.3421 -42.4502 -24.5925 -11.0152 -12.5882 0.0775 36.4921 15.2928 -4.9177 -1.3224 -0.0000 0.0000 -0.0000 35.9457 5.3885 3.7337 37.0727 -1.5251 -20.4524 9.7162 -2.2212 22.8653 -12.1251 2.0049 -0.7562 0.0000 0.0000 0.0000 3.3069 7.0599 21.4719 -4.0171 -9.5288 14.8988 1.9619 0.1657 -15.6336 0.0000 0.0000 -0.0000
18.8431 38.3097 4.2552 -178.6890 29.8206 172.0550 0.0000 0.0000 0.0000 0.6405 -0.1101 -14.7095 -0.7174 -4.2255 2.8290 3.0798 -0.3175 0.4089 0.0000 -0.0000 -0.0000 0.0000 0.0000 0.0000 -1.3280 1.3783 6.5514 5.3924 0.3520 1.2477 -0.0000 0.0000 -0.0000 0.4195 4.5304 3.6996 -0.0000 0.0000 -0.0000 -34.2916 -2.3831 2.3741 -41.5612 -23.1432 -12.1241 -12.4650 0.8744 36.5369 15.3421 -4.7703 -1.3084 -0.0000 0.0000 -0.0000 36.0818 5.3992 3.7506 37.5300 -2.3864 -20.8362 9.6103 -3.1214 23.4648 -12.0895 1.6568 -0.7203 0.0000 0.0000 0.0000 6.3196 8.4932 23.2528 -5.1229 -11.8879 19.1660 -1.0256 0.0587 -14.5900 0.0000 0.0000 -0.0000
20.0883 38.0270 2.9081 -176.7530 29.8495 172.2520 0.0000 0.0000 0.0000 2.7591 0.2924 -14.7217 -0.9739 -5.5784 8.5968 2.4002 -0.3543 6.2258 0.0000 -0.0000 -0.0000 0.0000 0.0000 0.0000 0.9024 1.2156 6.7786 4.9005 0.3184 0.8466 -0.0000 0.0000 -0.0000 0.1074 5.0584 4.7513 -0.0000 0.0000 -0.0000 -35.0793 -2.3729 2.4170 -40.8984 -21.2731 -14.2322 -11.9380 2.7619 36.9083 15.7388 -4.6702 -1.3308 -0.0000 0.0000 -0.0000 36.1358 5.3973 3.7547 37.9250 -2.9610 -21.3402 9.4413 -3.9259 23.8852 -11.8326 1.5322 -0.6929 0.0000 0.0000 0.0000 9.6361 8.0793 22.7225 -6.6797 -11.1067 27.0246 -4.8901 0.0874 -11.2459 0.0000 0.0000 -0.0000
21.1887 37.8307 1.7033 -174.6300 29.7539 172.6330 0.0000 0.0000 0.0000 5.0456 -0.5745 -14.6808 -1.0428 -5.3562 14.1784 2.8320 -0.4265 6.7911 0.0000 -0.0000 -0.0000 0.0000 0.0000 0.0000 3.2220 0.9762 7.5865 4.4323 0.2143 0.1379 -0.0000 0.0000 -0.0000 -0.0313 5.5563 5.4483 -0.0000 0.0000 -0.0000 -35.1095 -2.3143 2.3948 -41.4096 -19.6211 -16.9625 -10.8924 5.0954 37.4461 16.6861 -4.2984 -1.3628 -0.0000 0.0000 -0.0000 36.0237 5.3850 3.7393 38.2484 -2.9079 -21.7918 9.2565 -4.3260 23.7545 -11.3516 1.4506 -0.6567 0.0000 0.0000 0.0000 12.2026 6.8937 19.5272 -6.9979 -8.0322 37.3713 -7.3914 0.5395 -3.1393 0.0000 0.0000 -0.0000
22.1601 37.6908 0.6928 -173.3920 29.3793 172.6790 0.0000 0.0000 0.0000 6.9744 -2.0917 -14.5072 -1.1234 -3.8135 19.3735 1.2670 -0.1587 3.3492 0.0000 -0.0000 -0.0000 0.0000 0.0000 0.0000 4.1378 0.8007 9.0047 4.5269 0.1017 -0.7333 -0.0000 0.0000 -0.0000 0.2554 5.7147 5.6250 -0.0000 0.0000 -0.0000 -34.4272 -2.2439 2.3259 -42.7074 -18.6191 -19.5388 -9.6166 5.4301 38.3221 17.1587 -3.6531 -1.3128 -0.0000 0.0000 -0.0000 35.7786 5.3682 3.7100 38.4944 -2.2299 -21.7463 9.2376 -3.9568 23.1461 -11.0350 1.2453 -0.6198 0.0000 0.0000 0.0000 12.8393 4.9748 14.2029 -5.0006 -4.0067 48.3173 -6.6971 1.0110 6.8255 0.0000 0.0000 -0.0000
23.0806 37.6543 -0.2519 -173.2090 28.5754 172.2950 0.0000 0.0000 0.0000 7.7781 -2.5162 -13.5548 -1.4996 -3.8872 22.8264 -1.5538 0.1559 -0.0846 0.0000 -0.0000 -0.0000 0.0000 0.0000 0.0000 3.7810 0.7592 10.2495 4.8987 0.0555 -1.1954 -0.0000 0.0000 -0.0000 0.8874 5.3096 5.4955 -0.0000 0.0000 -0.0000 -33.9832 -2.2878 2.3176 -43.3814 -18.3971 -21.4885 -8.4833 5.3574 40.1512 16.1412 -3.2173 -1.1743 -0.0000 0.0000 -0.0000 35.5848 5.3529 3.6860 38.6367 -1.3419 -21.0597 9.4534 -2.6841 22.4624 -11.1695 0.9926 -0.6051 0.0000 0.0000 0.0000 11.7610 2.6624 8.1187 -1.1583 -0.8756 57.8409 -3.6962 0.7002 12.0443 0.0000 0.0000 -0.0000
